Coordinates
version=1
nRows=43
nColumns=12
inDegrees=yes

Units are S.I. units (second, meters, Newtons, ...)
Angles are in degrees

endheader
time	SC_y	SC_z	SC_x	AC_y	AC_z	AC_x	GH_y	GH_z	GH_yy	EL_x	PS_y
       0.0              -58.68          17.97          39.12          59.27         -13.36         -10.96         -48.63         -3.016         -106.0          73.68          119.0
   0.02356              -58.67          17.97          39.12          59.27         -13.36         -10.96         -48.64         -3.016         -105.9          73.67          119.0
   0.04712              -58.67          17.97          39.12          59.27         -13.36         -10.96         -48.66         -3.017         -105.9          73.66          119.0
   0.07068              -58.66          17.97          39.11          59.27         -13.36         -10.95         -48.67         -3.017         -105.9          73.66          119.0
   0.09424              -58.65          17.97          39.11          59.27         -13.36         -10.95         -48.69         -3.018         -105.8          73.65          119.0
    0.1178              -58.64          17.97          39.11          59.26         -13.36         -10.95          -48.7         -3.018         -105.8          73.64          118.9
    0.1414              -58.63          17.97          39.11          59.26         -13.36         -10.94         -48.72         -3.019         -105.7          73.63          118.9
    0.1649              -58.62          17.97           39.1          59.26         -13.36         -10.94         -48.74         -3.019         -105.6          73.62          118.9
    0.1885              -58.61          17.97           39.1          59.26         -13.36         -10.93         -48.75          -3.02         -105.6          73.61          118.9
     0.212               -58.6          17.97          39.09          59.25         -13.36         -10.93         -48.77         -3.021         -105.5           73.6          118.9
    0.2356              -58.59          17.97          39.09          59.25         -13.36         -10.92          -48.8         -3.022         -105.4          73.59          118.8
    0.2592              -58.58          17.96          39.09          59.25         -13.36         -10.91         -48.82         -3.023         -105.4          73.58          118.8
    0.2827              -58.56          17.96          39.08          59.24         -13.36         -10.91         -48.84         -3.023         -105.3          73.57          118.8
    0.3063              -58.55          17.96          39.08          59.24         -13.36          -10.9         -48.87         -3.024         -105.2          73.55          118.8
    0.3298              -58.53          17.96          39.07          59.24         -13.36         -10.89          -48.9         -3.025         -105.1          73.54          118.7
    0.3534              -58.51          17.96          39.06          59.23         -13.36         -10.88         -48.93         -3.027         -105.0          73.52          118.7
    0.3769              -58.49          17.96          39.06          59.23         -13.36         -10.88         -48.97         -3.028         -104.9           73.5          118.7
    0.4005              -58.47          17.96          39.05          59.22         -13.36         -10.87         -49.01         -3.029         -104.8          73.48          118.6
    0.4241              -58.45          17.96          39.04          59.22         -13.36         -10.86         -49.05         -3.031         -104.6          73.46          118.6
    0.4476              -58.42          17.95          39.03          59.21         -13.36         -10.84         -49.09         -3.032         -104.5          73.44          118.6
    0.4712              -58.39          17.95          39.02           59.2         -13.36         -10.83         -49.14         -3.034         -104.3          73.41          118.5
    0.4947              -58.36          17.95          39.01          59.19         -13.36         -10.82          -49.2         -3.036         -104.1          73.39          118.5
    0.5183              -58.33          17.95           39.0          59.19         -13.36          -10.8         -49.26         -3.038         -103.9          73.35          118.4
    0.5419              -58.29          17.94          38.99          59.18         -13.36         -10.78         -49.33         -3.041         -103.7          73.32          118.3
    0.5654              -58.25          17.94          38.98          59.17         -13.36         -10.76          -49.4         -3.044         -103.5          73.28          118.3
     0.589               -58.2          17.94          38.96          59.16         -13.36         -10.74         -49.48         -3.047         -103.2          73.24          118.2
    0.6125              -58.15          17.93          38.94          59.14         -13.36         -10.72         -49.58          -3.05         -102.9          73.19          118.1
    0.6361              -58.09          17.93          38.92          59.13         -13.35         -10.69         -49.68         -3.054         -102.5          73.14          118.0
    0.6597              -58.02          17.92           38.9          59.11         -13.35         -10.66          -49.8         -3.058         -102.2          73.08          117.9
    0.6832              -57.94          17.92          38.88          59.09         -13.35         -10.63         -49.94         -3.063         -101.7          73.01          117.8
    0.7068              -57.86          17.91          38.85          59.07         -13.35         -10.59         -50.09         -3.069         -101.2          72.93          117.6
    0.7303              -57.76          17.91          38.81          59.05         -13.35         -10.54         -50.27         -3.075         -100.6          72.84          117.4
    0.7539              -57.64           17.9          38.78          59.02         -13.35         -10.49         -50.47         -3.082         -99.96          72.73          117.3
    0.7775              -57.51          17.89          38.73          58.99         -13.35         -10.43         -50.71         -3.091         -99.19          72.61          117.0
     0.801              -57.35          17.88          38.68          58.95         -13.34         -10.36         -50.99         -3.101         -98.28          72.47          116.8
    0.8246              -57.17          17.86          38.62          58.91         -13.34         -10.27         -51.31         -3.113         -97.21           72.3          116.5
    0.8481              -56.95          17.85          38.54          58.85         -13.34         -10.17          -51.7         -3.127         -95.94           72.1          116.1
    0.8717              -56.68          17.83          38.46          58.79         -13.33         -10.05         -52.17         -3.144         -94.42          71.87          115.6
    0.8952              -56.37          17.81          38.35          58.71         -13.33         -9.906         -52.73         -3.164         -92.58          71.58          115.1
    0.9188              -55.98          17.78          38.22          58.62         -13.32         -9.728         -53.42         -3.189         -90.33          71.22          114.5
    0.9424               -55.5          17.75          38.06           58.5         -13.32         -9.509         -54.27          -3.22         -87.55          70.79          113.7
    0.9659               -54.9           17.7          37.86          58.36         -13.31         -9.236         -55.32         -3.259         -84.09          70.25          112.6
    0.9895              -54.15          17.65          37.61          58.17         -13.29         -8.892         -56.66         -3.307         -79.73          69.56          111.4
